<svg id="visual" viewBox="0 0 960 540" width="960" height="540" xmlns="http://www.w3.org/2000/svg" xmlns:xlink="http://www.w3.org/1999/xlink" version="1.1"><rect x="0" y="0" width="960" height="540" fill="#000000"></rect><path d="M0 136L22.8 137C45.7 138 91.3 140 137 153.2C182.7 166.3 228.3 190.7 274 196.8C319.7 203 365.3 191 411.2 181C457 171 503 163 548.8 159.5C594.7 156 640.3 157 686 159.3C731.7 161.7 777.3 165.3 823 175.5C868.7 185.7 914.3 202.3 937.2 210.7L960 219L960 0L937.2 0C914.3 0 868.7 0 823 0C777.3 0 731.7 0 686 0C640.3 0 594.7 0 548.8 0C503 0 457 0 411.2 0C365.3 0 319.7 0 274 0C228.3 0 182.7 0 137 0C91.3 0 45.7 0 22.8 0L0 0Z" fill="#6a6a6a"></path><path d="M0 119L22.8 127.8C45.7 136.7 91.3 154.3 137 157.5C182.7 160.7 228.3 149.3 274 139.5C319.7 129.7 365.3 121.3 411.2 127.7C457 134 503 155 548.8 159.7C594.7 164.3 640.3 152.7 686 149.2C731.7 145.7 777.3 150.3 823 157.2C868.7 164 914.3 173 937.2 177.5L960 182L960 0L937.2 0C914.3 0 868.7 0 823 0C777.3 0 731.7 0 686 0C640.3 0 594.7 0 548.8 0C503 0 457 0 411.2 0C365.3 0 319.7 0 274 0C228.3 0 182.7 0 137 0C91.3 0 45.7 0 22.8 0L0 0Z" fill="#585858"></path><path d="M0 139L22.8 138.2C45.7 137.3 91.3 135.7 137 126.8C182.7 118 228.3 102 274 98C319.7 94 365.3 102 411.2 104.2C457 106.3 503 102.7 548.8 105.5C594.7 108.3 640.3 117.7 686 121.8C731.7 126 777.3 125 823 126.3C868.7 127.7 914.3 131.3 937.2 133.2L960 135L960 0L937.2 0C914.3 0 868.7 0 823 0C777.3 0 731.7 0 686 0C640.3 0 594.7 0 548.8 0C503 0 457 0 411.2 0C365.3 0 319.7 0 274 0C228.3 0 182.7 0 137 0C91.3 0 45.7 0 22.8 0L0 0Z" fill="#464646"></path><path d="M0 76L22.8 78.5C45.7 81 91.3 86 137 86.3C182.7 86.7 228.3 82.3 274 82C319.7 81.7 365.3 85.3 411.2 89.5C457 93.7 503 98.3 548.8 100.7C594.7 103 640.3 103 686 96C731.7 89 777.3 75 823 68.5C868.7 62 914.3 63 937.2 63.5L960 64L960 0L937.2 0C914.3 0 868.7 0 823 0C777.3 0 731.7 0 686 0C640.3 0 594.7 0 548.8 0C503 0 457 0 411.2 0C365.3 0 319.7 0 274 0C228.3 0 182.7 0 137 0C91.3 0 45.7 0 22.8 0L0 0Z" fill="#3d3d3d"></path><path d="M0 61L22.8 57.8C45.7 54.7 91.3 48.3 137 48.3C182.7 48.3 228.3 54.7 274 51.5C319.7 48.3 365.3 35.7 411.2 29.7C457 23.7 503 24.3 548.8 24.3C594.7 24.3 640.3 23.7 686 27.7C731.7 31.7 777.3 40.3 823 42.8C868.7 45.3 914.3 41.7 937.2 39.8L960 38L960 0L937.2 0C914.3 0 868.7 0 823 0C777.3 0 731.7 0 686 0C640.3 0 594.7 0 548.8 0C503 0 457 0 411.2 0C365.3 0 319.7 0 274 0C228.3 0 182.7 0 137 0C91.3 0 45.7 0 22.8 0L0 0Z" fill="#343434"></path></svg>