<svg id="visual" viewBox="0 0 960 540" width="960" height="540" xmlns="http://www.w3.org/2000/svg" xmlns:xlink="http://www.w3.org/1999/xlink" version="1.1"><rect x="0" y="0" width="960" height="540" fill="#1c1c1c"></rect><path d="M0 155L26.7 155C53.3 155 106.7 155 160 139C213.3 123 266.7 91 320 76.2C373.3 61.3 426.7 63.7 480 71.3C533.3 79 586.7 92 640 90.7C693.3 89.3 746.7 73.7 800 67.8C853.3 62 906.7 66 933.3 68L960 70L960 541L933.3 541C906.7 541 853.3 541 800 541C746.7 541 693.3 541 640 541C586.7 541 533.3 541 480 541C426.7 541 373.3 541 320 541C266.7 541 213.3 541 160 541C106.7 541 53.3 541 26.7 541L0 541Z" fill="#444444"></path><path d="M0 145L26.7 154.5C53.3 164 106.7 183 160 180.7C213.3 178.3 266.7 154.7 320 143.5C373.3 132.3 426.7 133.7 480 137.5C533.3 141.3 586.7 147.7 640 161C693.3 174.3 746.7 194.7 800 189C853.3 183.3 906.7 151.7 933.3 135.8L960 120L960 541L933.3 541C906.7 541 853.3 541 800 541C746.7 541 693.3 541 640 541C586.7 541 533.3 541 480 541C426.7 541 373.3 541 320 541C266.7 541 213.3 541 160 541C106.7 541 53.3 541 26.7 541L0 541Z" fill="#383838"></path><path d="M0 212L26.7 208C53.3 204 106.7 196 160 203.2C213.3 210.3 266.7 232.7 320 237.3C373.3 242 426.7 229 480 229.5C533.3 230 586.7 244 640 246.7C693.3 249.3 746.7 240.7 800 231.5C853.3 222.3 906.7 212.7 933.3 207.8L960 203L960 541L933.3 541C906.7 541 853.3 541 800 541C746.7 541 693.3 541 640 541C586.7 541 533.3 541 480 541C426.7 541 373.3 541 320 541C266.7 541 213.3 541 160 541C106.7 541 53.3 541 26.7 541L0 541Z" fill="#2c2c2c"></path><path d="M0 333L26.7 332.8C53.3 332.7 106.7 332.3 160 325.5C213.3 318.7 266.7 305.3 320 303.5C373.3 301.7 426.7 311.3 480 309.7C533.3 308 586.7 295 640 288C693.3 281 746.7 280 800 279.8C853.3 279.7 906.7 280.3 933.3 280.7L960 281L960 541L933.3 541C906.7 541 853.3 541 800 541C746.7 541 693.3 541 640 541C586.7 541 533.3 541 480 541C426.7 541 373.3 541 320 541C266.7 541 213.3 541 160 541C106.7 541 53.3 541 26.7 541L0 541Z" fill="#212121"></path><path d="M0 381L26.7 374.2C53.3 367.3 106.7 353.7 160 353.3C213.3 353 266.7 366 320 364.8C373.3 363.7 426.7 348.3 480 348.8C533.3 349.3 586.7 365.7 640 372C693.3 378.3 746.7 374.7 800 371C853.3 367.3 906.7 363.7 933.3 361.8L960 360L960 541L933.3 541C906.7 541 853.3 541 800 541C746.7 541 693.3 541 640 541C586.7 541 533.3 541 480 541C426.7 541 373.3 541 320 541C266.7 541 213.3 541 160 541C106.7 541 53.3 541 26.7 541L0 541Z" fill="#1f1f1f"></path><path d="M0 389L26.7 391C53.3 393 106.7 397 160 394.7C213.3 392.3 266.7 383.7 320 382.8C373.3 382 426.7 389 480 394C533.3 399 586.7 402 640 405C693.3 408 746.7 411 800 409.2C853.3 407.3 906.7 400.7 933.3 397.3L960 394L960 541L933.3 541C906.7 541 853.3 541 800 541C746.7 541 693.3 541 640 541C586.7 541 533.3 541 480 541C426.7 541 373.3 541 320 541C266.7 541 213.3 541 160 541C106.7 541 53.3 541 26.7 541L0 541Z" fill="#1c1c1c"></path><path d="M0 441L26.7 445C53.3 449 106.7 457 160 464.3C213.3 471.7 266.7 478.3 320 475C373.3 471.7 426.7 458.3 480 454.3C533.3 450.3 586.7 455.7 640 461.5C693.3 467.3 746.7 473.7 800 476.2C853.3 478.7 906.7 477.3 933.3 476.7L960 476L960 541L933.3 541C906.7 541 853.3 541 800 541C746.7 541 693.3 541 640 541C586.7 541 533.3 541 480 541C426.7 541 373.3 541 320 541C266.7 541 213.3 541 160 541C106.7 541 53.3 541 26.7 541L0 541Z" fill="#1a1a1a"></path></svg>