<svg xmlns="http://www.w3.org/2000/svg" version="1.1" xmlns:xlink="http://www.w3.org/1999/xlink" xmlns:svgjs="http://svgjs.dev/svgjs" viewBox="0 0 800 800" opacity="1" width="800" height="800"><g stroke-width="0.5" stroke="hsla(0, 0%, 28%, 1.00)" fill="none"><rect width="72.72727272727273" height="66.66666666666667" x="0" y="0" opacity="0.15"></rect><circle r="3.75" cx="0" cy="0" fill="hsla(0, 0%, 28%, 1.00)" stroke="none"></circle><rect width="72.72727272727273" height="66.66666666666667" x="72.72727272727273" y="0" opacity="0.15"></rect><circle r="3.75" cx="72.72727272727273" cy="0" fill="hsla(0, 0%, 28%, 1.00)" stroke="none"></circle><rect width="72.72727272727273" height="66.66666666666667" x="145.45454545454547" y="0" opacity="0.15"></rect><circle r="3.75" cx="145.45454545454547" cy="0" fill="hsla(0, 0%, 28%, 1.00)" stroke="none"></circle><rect width="72.72727272727273" height="66.66666666666667" x="218.1818181818182" y="0" opacity="0.15"></rect><circle r="3.75" cx="218.1818181818182" cy="0" fill="hsla(0, 0%, 28%, 1.00)" stroke="none"></circle><rect width="72.72727272727273" height="66.66666666666667" x="290.90909090909093" y="0" opacity="0.15"></rect><circle r="3.75" cx="290.90909090909093" cy="0" fill="hsla(0, 0%, 28%, 1.00)" stroke="none"></circle><rect width="72.72727272727273" height="66.66666666666667" x="363.6363636363637" y="0" opacity="0.15"></rect><circle r="3.75" cx="363.6363636363637" cy="0" fill="hsla(0, 0%, 28%, 1.00)" stroke="none"></circle><rect width="72.72727272727273" height="66.66666666666667" x="436.36363636363643" y="0" opacity="0.15"></rect><circle r="3.75" cx="436.36363636363643" cy="0" fill="hsla(0, 0%, 28%, 1.00)" stroke="none"></circle><rect width="72.72727272727273" height="66.66666666666667" x="509.0909090909092" y="0" opacity="0.15"></rect><circle r="3.75" cx="509.0909090909092" cy="0" fill="hsla(0, 0%, 28%, 1.00)" stroke="none"></circle><rect width="72.72727272727273" height="66.66666666666667" x="581.8181818181819" y="0" opacity="0.15"></rect><circle r="3.75" cx="581.8181818181819" cy="0" fill="hsla(0, 0%, 28%, 1.00)" stroke="none"></circle><rect width="72.72727272727273" height="66.66666666666667" x="654.5454545454546" y="0" opacity="0.15"></rect><circle r="3.75" cx="654.5454545454546" cy="0" fill="hsla(0, 0%, 28%, 1.00)" stroke="none"></circle><rect width="72.72727272727273" height="66.66666666666667" x="727.2727272727274" y="0" opacity="0.15"></rect><circle r="3.75" cx="727.2727272727274" cy="0" fill="hsla(0, 0%, 28%, 1.00)" stroke="none"></circle><rect width="72.72727272727273" height="66.66666666666667" x="800.0000000000001" y="0" opacity="0.15"></rect><circle r="3.75" cx="800.0000000000001" cy="0" fill="hsla(0, 0%, 28%, 1.00)" stroke="none"></circle><rect width="72.72727272727273" height="66.66666666666667" x="0" y="66.66666666666667" opacity="0.15"></rect><circle r="3.75" cx="0" cy="66.66666666666667" fill="hsla(0, 0%, 28%, 1.00)" stroke="none"></circle><rect width="72.72727272727273" height="66.66666666666667" x="72.72727272727273" y="66.66666666666667" opacity="0.15"></rect><circle r="3.75" cx="72.72727272727273" cy="66.66666666666667" fill="hsla(0, 0%, 28%, 1.00)" stroke="none"></circle><rect width="72.72727272727273" height="66.66666666666667" x="145.45454545454547" y="66.66666666666667" opacity="0.15"></rect><circle r="3.75" cx="145.45454545454547" cy="66.66666666666667" fill="hsla(0, 0%, 28%, 1.00)" stroke="none"></circle><rect width="72.72727272727273" height="66.66666666666667" x="218.1818181818182" y="66.66666666666667" opacity="0.15"></rect><circle r="3.75" cx="218.1818181818182" cy="66.66666666666667" fill="hsla(0, 0%, 28%, 1.00)" stroke="none"></circle><rect width="72.72727272727273" height="66.66666666666667" x="290.90909090909093" y="66.66666666666667" opacity="0.15"></rect><circle r="3.75" cx="290.90909090909093" cy="66.66666666666667" fill="hsla(0, 0%, 28%, 1.00)" stroke="none"></circle><rect width="72.72727272727273" height="66.66666666666667" x="363.6363636363637" y="66.66666666666667" opacity="0.15"></rect><circle r="3.75" cx="363.6363636363637" cy="66.66666666666667" fill="hsla(0, 0%, 28%, 1.00)" stroke="none"></circle><rect width="72.72727272727273" height="66.66666666666667" x="436.36363636363643" y="66.66666666666667" opacity="0.15"></rect><circle r="3.75" cx="436.36363636363643" cy="66.66666666666667" fill="hsla(0, 0%, 28%, 1.00)" stroke="none"></circle><rect width="72.72727272727273" height="66.66666666666667" x="509.0909090909092" y="66.66666666666667" opacity="0.15"></rect><circle r="3.75" cx="509.0909090909092" cy="66.66666666666667" fill="hsla(0, 0%, 28%, 1.00)" stroke="none"></circle><rect width="72.72727272727273" height="66.66666666666667" x="581.8181818181819" y="66.66666666666667" opacity="0.15"></rect><circle r="3.75" cx="581.8181818181819" cy="66.66666666666667" fill="hsla(0, 0%, 28%, 1.00)" stroke="none"></circle><rect width="72.72727272727273" height="66.66666666666667" x="654.5454545454546" y="66.66666666666667" opacity="0.15"></rect><circle r="3.75" cx="654.5454545454546" cy="66.66666666666667" fill="hsla(0, 0%, 28%, 1.00)" stroke="none"></circle><rect width="72.72727272727273" height="66.66666666666667" x="727.2727272727274" y="66.66666666666667" opacity="0.15"></rect><circle r="3.75" cx="727.2727272727274" cy="66.66666666666667" fill="hsla(0, 0%, 28%, 1.00)" stroke="none"></circle><rect width="72.72727272727273" height="66.66666666666667" x="800.0000000000001" y="66.66666666666667" opacity="0.15"></rect><circle r="3.75" cx="800.0000000000001" cy="66.66666666666667" fill="hsla(0, 0%, 28%, 1.00)" stroke="none"></circle><rect width="72.72727272727273" height="66.66666666666667" x="0" y="133.33333333333334" opacity="0.15"></rect><circle r="3.75" cx="0" cy="133.33333333333334" fill="hsla(0, 0%, 28%, 1.00)" stroke="none"></circle><rect width="72.72727272727273" height="66.66666666666667" x="72.72727272727273" y="133.33333333333334" opacity="0.15"></rect><circle r="3.75" cx="72.72727272727273" cy="133.33333333333334" fill="hsla(0, 0%, 28%, 1.00)" stroke="none"></circle><rect width="72.72727272727273" height="66.66666666666667" x="145.45454545454547" y="133.33333333333334" opacity="0.15"></rect><circle r="3.75" cx="145.45454545454547" cy="133.33333333333334" fill="hsla(0, 0%, 28%, 1.00)" stroke="none"></circle><rect width="72.72727272727273" height="66.66666666666667" x="218.1818181818182" y="133.33333333333334" opacity="0.15"></rect><circle r="3.75" cx="218.1818181818182" cy="133.33333333333334" fill="hsla(0, 0%, 28%, 1.00)" stroke="none"></circle><rect width="72.72727272727273" height="66.66666666666667" x="290.90909090909093" y="133.33333333333334" opacity="0.15"></rect><circle r="3.75" cx="290.90909090909093" cy="133.33333333333334" fill="hsla(0, 0%, 28%, 1.00)" stroke="none"></circle><rect width="72.72727272727273" height="66.66666666666667" x="363.6363636363637" y="133.33333333333334" opacity="0.15"></rect><circle r="3.75" cx="363.6363636363637" cy="133.33333333333334" fill="hsla(0, 0%, 28%, 1.00)" stroke="none"></circle><rect width="72.72727272727273" height="66.66666666666667" x="436.36363636363643" y="133.33333333333334" opacity="0.15"></rect><circle r="3.75" cx="436.36363636363643" cy="133.33333333333334" fill="hsla(0, 0%, 28%, 1.00)" stroke="none"></circle><rect width="72.72727272727273" height="66.66666666666667" x="509.0909090909092" y="133.33333333333334" opacity="0.15"></rect><circle r="3.75" cx="509.0909090909092" cy="133.33333333333334" fill="hsla(0, 0%, 28%, 1.00)" stroke="none"></circle><rect width="72.72727272727273" height="66.66666666666667" x="581.8181818181819" y="133.33333333333334" opacity="0.15"></rect><circle r="3.75" cx="581.8181818181819" cy="133.33333333333334" fill="hsla(0, 0%, 28%, 1.00)" stroke="none"></circle><rect width="72.72727272727273" height="66.66666666666667" x="654.5454545454546" y="133.33333333333334" opacity="0.15"></rect><circle r="3.75" cx="654.5454545454546" cy="133.33333333333334" fill="hsla(0, 0%, 28%, 1.00)" stroke="none"></circle><rect width="72.72727272727273" height="66.66666666666667" x="727.2727272727274" y="133.33333333333334" opacity="0.15"></rect><circle r="3.75" cx="727.2727272727274" cy="133.33333333333334" fill="hsla(0, 0%, 28%, 1.00)" stroke="none"></circle><rect width="72.72727272727273" height="66.66666666666667" x="800.0000000000001" y="133.33333333333334" opacity="0.15"></rect><circle r="3.75" cx="800.0000000000001" cy="133.33333333333334" fill="hsla(0, 0%, 28%, 1.00)" stroke="none"></circle><rect width="72.72727272727273" height="66.66666666666667" x="0" y="200" opacity="0.15"></rect><circle r="3.75" cx="0" cy="200" fill="hsla(0, 0%, 28%, 1.00)" stroke="none"></circle><rect width="72.72727272727273" height="66.66666666666667" x="72.72727272727273" y="200" opacity="0.15"></rect><circle r="3.75" cx="72.72727272727273" cy="200" fill="hsla(0, 0%, 28%, 1.00)" stroke="none"></circle><rect width="72.72727272727273" height="66.66666666666667" x="145.45454545454547" y="200" opacity="0.15"></rect><circle r="3.75" cx="145.45454545454547" cy="200" fill="hsla(0, 0%, 28%, 1.00)" stroke="none"></circle><rect width="72.72727272727273" height="66.66666666666667" x="218.1818181818182" y="200" opacity="0.15"></rect><circle r="3.75" cx="218.1818181818182" cy="200" fill="hsla(0, 0%, 28%, 1.00)" stroke="none"></circle><rect width="72.72727272727273" height="66.66666666666667" x="290.90909090909093" y="200" opacity="0.15"></rect><circle r="3.75" cx="290.90909090909093" cy="200" fill="hsla(0, 0%, 28%, 1.00)" stroke="none"></circle><rect width="72.72727272727273" height="66.66666666666667" x="363.6363636363637" y="200" opacity="0.15"></rect><circle r="3.75" cx="363.6363636363637" cy="200" fill="hsla(0, 0%, 28%, 1.00)" stroke="none"></circle><rect width="72.72727272727273" height="66.66666666666667" x="436.36363636363643" y="200" opacity="0.15"></rect><circle r="3.75" cx="436.36363636363643" cy="200" fill="hsla(0, 0%, 28%, 1.00)" stroke="none"></circle><rect width="72.72727272727273" height="66.66666666666667" x="509.0909090909092" y="200" opacity="0.15"></rect><circle r="3.75" cx="509.0909090909092" cy="200" fill="hsla(0, 0%, 28%, 1.00)" stroke="none"></circle><rect width="72.72727272727273" height="66.66666666666667" x="581.8181818181819" y="200" opacity="0.15"></rect><circle r="3.75" cx="581.8181818181819" cy="200" fill="hsla(0, 0%, 28%, 1.00)" stroke="none"></circle><rect width="72.72727272727273" height="66.66666666666667" x="654.5454545454546" y="200" opacity="0.15"></rect><circle r="3.75" cx="654.5454545454546" cy="200" fill="hsla(0, 0%, 28%, 1.00)" stroke="none"></circle><rect width="72.72727272727273" height="66.66666666666667" x="727.2727272727274" y="200" opacity="0.15"></rect><circle r="3.75" cx="727.2727272727274" cy="200" fill="hsla(0, 0%, 28%, 1.00)" stroke="none"></circle><rect width="72.72727272727273" height="66.66666666666667" x="800.0000000000001" y="200" opacity="0.15"></rect><circle r="3.75" cx="800.0000000000001" cy="200" fill="hsla(0, 0%, 28%, 1.00)" stroke="none"></circle><rect width="72.72727272727273" height="66.66666666666667" x="0" y="266.6666666666667" opacity="0.15"></rect><circle r="3.75" cx="0" cy="266.6666666666667" fill="hsla(0, 0%, 28%, 1.00)" stroke="none"></circle><rect width="72.72727272727273" height="66.66666666666667" x="72.72727272727273" y="266.6666666666667" opacity="0.15"></rect><circle r="3.75" cx="72.72727272727273" cy="266.6666666666667" fill="hsla(0, 0%, 28%, 1.00)" stroke="none"></circle><rect width="72.72727272727273" height="66.66666666666667" x="145.45454545454547" y="266.6666666666667" opacity="0.15"></rect><circle r="3.75" cx="145.45454545454547" cy="266.6666666666667" fill="hsla(0, 0%, 28%, 1.00)" stroke="none"></circle><rect width="72.72727272727273" height="66.66666666666667" x="218.1818181818182" y="266.6666666666667" opacity="0.15"></rect><circle r="3.75" cx="218.1818181818182" cy="266.6666666666667" fill="hsla(0, 0%, 28%, 1.00)" stroke="none"></circle><rect width="72.72727272727273" height="66.66666666666667" x="290.90909090909093" y="266.6666666666667" opacity="0.15"></rect><circle r="3.75" cx="290.90909090909093" cy="266.6666666666667" fill="hsla(0, 0%, 28%, 1.00)" stroke="none"></circle><rect width="72.72727272727273" height="66.66666666666667" x="363.6363636363637" y="266.6666666666667" opacity="0.15"></rect><circle r="3.75" cx="363.6363636363637" cy="266.6666666666667" fill="hsla(0, 0%, 28%, 1.00)" stroke="none"></circle><rect width="72.72727272727273" height="66.66666666666667" x="436.36363636363643" y="266.6666666666667" opacity="0.15"></rect><circle r="3.75" cx="436.36363636363643" cy="266.6666666666667" fill="hsla(0, 0%, 28%, 1.00)" stroke="none"></circle><rect width="72.72727272727273" height="66.66666666666667" x="509.0909090909092" y="266.6666666666667" opacity="0.15"></rect><circle r="3.75" cx="509.0909090909092" cy="266.6666666666667" fill="hsla(0, 0%, 28%, 1.00)" stroke="none"></circle><rect width="72.72727272727273" height="66.66666666666667" x="581.8181818181819" y="266.6666666666667" opacity="0.15"></rect><circle r="3.75" cx="581.8181818181819" cy="266.6666666666667" fill="hsla(0, 0%, 28%, 1.00)" stroke="none"></circle><rect width="72.72727272727273" height="66.66666666666667" x="654.5454545454546" y="266.6666666666667" opacity="0.15"></rect><circle r="3.75" cx="654.5454545454546" cy="266.6666666666667" fill="hsla(0, 0%, 28%, 1.00)" stroke="none"></circle><rect width="72.72727272727273" height="66.66666666666667" x="727.2727272727274" y="266.6666666666667" opacity="0.15"></rect><circle r="3.75" cx="727.2727272727274" cy="266.6666666666667" fill="hsla(0, 0%, 28%, 1.00)" stroke="none"></circle><rect width="72.72727272727273" height="66.66666666666667" x="800.0000000000001" y="266.6666666666667" opacity="0.15"></rect><circle r="3.75" cx="800.0000000000001" cy="266.6666666666667" fill="hsla(0, 0%, 28%, 1.00)" stroke="none"></circle><rect width="72.72727272727273" height="66.66666666666667" x="0" y="333.33333333333337" opacity="0.15"></rect><circle r="3.75" cx="0" cy="333.33333333333337" fill="hsla(0, 0%, 28%, 1.00)" stroke="none"></circle><rect width="72.72727272727273" height="66.66666666666667" x="72.72727272727273" y="333.33333333333337" opacity="0.15"></rect><circle r="3.75" cx="72.72727272727273" cy="333.33333333333337" fill="hsla(0, 0%, 28%, 1.00)" stroke="none"></circle><rect width="72.72727272727273" height="66.66666666666667" x="145.45454545454547" y="333.33333333333337" opacity="0.15"></rect><circle r="3.75" cx="145.45454545454547" cy="333.33333333333337" fill="hsla(0, 0%, 28%, 1.00)" stroke="none"></circle><rect width="72.72727272727273" height="66.66666666666667" x="218.1818181818182" y="333.33333333333337" opacity="0.15"></rect><circle r="3.75" cx="218.1818181818182" cy="333.33333333333337" fill="hsla(0, 0%, 28%, 1.00)" stroke="none"></circle><rect width="72.72727272727273" height="66.66666666666667" x="290.90909090909093" y="333.33333333333337" opacity="0.15"></rect><circle r="3.75" cx="290.90909090909093" cy="333.33333333333337" fill="hsla(0, 0%, 28%, 1.00)" stroke="none"></circle><rect width="72.72727272727273" height="66.66666666666667" x="363.6363636363637" y="333.33333333333337" opacity="0.15"></rect><circle r="3.75" cx="363.6363636363637" cy="333.33333333333337" fill="hsla(0, 0%, 28%, 1.00)" stroke="none"></circle><rect width="72.72727272727273" height="66.66666666666667" x="436.36363636363643" y="333.33333333333337" opacity="0.15"></rect><circle r="3.75" cx="436.36363636363643" cy="333.33333333333337" fill="hsla(0, 0%, 28%, 1.00)" stroke="none"></circle><rect width="72.72727272727273" height="66.66666666666667" x="509.0909090909092" y="333.33333333333337" opacity="0.15"></rect><circle r="3.75" cx="509.0909090909092" cy="333.33333333333337" fill="hsla(0, 0%, 28%, 1.00)" stroke="none"></circle><rect width="72.72727272727273" height="66.66666666666667" x="581.8181818181819" y="333.33333333333337" opacity="0.15"></rect><circle r="3.75" cx="581.8181818181819" cy="333.33333333333337" fill="hsla(0, 0%, 28%, 1.00)" stroke="none"></circle><rect width="72.72727272727273" height="66.66666666666667" x="654.5454545454546" y="333.33333333333337" opacity="0.15"></rect><circle r="3.75" cx="654.5454545454546" cy="333.33333333333337" fill="hsla(0, 0%, 28%, 1.00)" stroke="none"></circle><rect width="72.72727272727273" height="66.66666666666667" x="727.2727272727274" y="333.33333333333337" opacity="0.15"></rect><circle r="3.75" cx="727.2727272727274" cy="333.33333333333337" fill="hsla(0, 0%, 28%, 1.00)" stroke="none"></circle><rect width="72.72727272727273" height="66.66666666666667" x="800.0000000000001" y="333.33333333333337" opacity="0.15"></rect><circle r="3.75" cx="800.0000000000001" cy="333.33333333333337" fill="hsla(0, 0%, 28%, 1.00)" stroke="none"></circle><rect width="72.72727272727273" height="66.66666666666667" x="0" y="400.00000000000006" opacity="0.15"></rect><circle r="3.75" cx="0" cy="400.00000000000006" fill="hsla(0, 0%, 28%, 1.00)" stroke="none"></circle><rect width="72.72727272727273" height="66.66666666666667" x="72.72727272727273" y="400.00000000000006" opacity="0.15"></rect><circle r="3.75" cx="72.72727272727273" cy="400.00000000000006" fill="hsla(0, 0%, 28%, 1.00)" stroke="none"></circle><rect width="72.72727272727273" height="66.66666666666667" x="145.45454545454547" y="400.00000000000006" opacity="0.15"></rect><circle r="3.75" cx="145.45454545454547" cy="400.00000000000006" fill="hsla(0, 0%, 28%, 1.00)" stroke="none"></circle><rect width="72.72727272727273" height="66.66666666666667" x="218.1818181818182" y="400.00000000000006" opacity="0.15"></rect><circle r="3.75" cx="218.1818181818182" cy="400.00000000000006" fill="hsla(0, 0%, 28%, 1.00)" stroke="none"></circle><rect width="72.72727272727273" height="66.66666666666667" x="290.90909090909093" y="400.00000000000006" opacity="0.15"></rect><circle r="3.75" cx="290.90909090909093" cy="400.00000000000006" fill="hsla(0, 0%, 28%, 1.00)" stroke="none"></circle><rect width="72.72727272727273" height="66.66666666666667" x="363.6363636363637" y="400.00000000000006" opacity="0.15"></rect><circle r="3.75" cx="363.6363636363637" cy="400.00000000000006" fill="hsla(0, 0%, 28%, 1.00)" stroke="none"></circle><rect width="72.72727272727273" height="66.66666666666667" x="436.36363636363643" y="400.00000000000006" opacity="0.15"></rect><circle r="3.75" cx="436.36363636363643" cy="400.00000000000006" fill="hsla(0, 0%, 28%, 1.00)" stroke="none"></circle><rect width="72.72727272727273" height="66.66666666666667" x="509.0909090909092" y="400.00000000000006" opacity="0.15"></rect><circle r="3.75" cx="509.0909090909092" cy="400.00000000000006" fill="hsla(0, 0%, 28%, 1.00)" stroke="none"></circle><rect width="72.72727272727273" height="66.66666666666667" x="581.8181818181819" y="400.00000000000006" opacity="0.15"></rect><circle r="3.75" cx="581.8181818181819" cy="400.00000000000006" fill="hsla(0, 0%, 28%, 1.00)" stroke="none"></circle><rect width="72.72727272727273" height="66.66666666666667" x="654.5454545454546" y="400.00000000000006" opacity="0.15"></rect><circle r="3.75" cx="654.5454545454546" cy="400.00000000000006" fill="hsla(0, 0%, 28%, 1.00)" stroke="none"></circle><rect width="72.72727272727273" height="66.66666666666667" x="727.2727272727274" y="400.00000000000006" opacity="0.15"></rect><circle r="3.75" cx="727.2727272727274" cy="400.00000000000006" fill="hsla(0, 0%, 28%, 1.00)" stroke="none"></circle><rect width="72.72727272727273" height="66.66666666666667" x="800.0000000000001" y="400.00000000000006" opacity="0.15"></rect><circle r="3.75" cx="800.0000000000001" cy="400.00000000000006" fill="hsla(0, 0%, 28%, 1.00)" stroke="none"></circle><rect width="72.72727272727273" height="66.66666666666667" x="0" y="466.66666666666674" opacity="0.15"></rect><circle r="3.75" cx="0" cy="466.66666666666674" fill="hsla(0, 0%, 28%, 1.00)" stroke="none"></circle><rect width="72.72727272727273" height="66.66666666666667" x="72.72727272727273" y="466.66666666666674" opacity="0.15"></rect><circle r="3.75" cx="72.72727272727273" cy="466.66666666666674" fill="hsla(0, 0%, 28%, 1.00)" stroke="none"></circle><rect width="72.72727272727273" height="66.66666666666667" x="145.45454545454547" y="466.66666666666674" opacity="0.15"></rect><circle r="3.75" cx="145.45454545454547" cy="466.66666666666674" fill="hsla(0, 0%, 28%, 1.00)" stroke="none"></circle><rect width="72.72727272727273" height="66.66666666666667" x="218.1818181818182" y="466.66666666666674" opacity="0.15"></rect><circle r="3.75" cx="218.1818181818182" cy="466.66666666666674" fill="hsla(0, 0%, 28%, 1.00)" stroke="none"></circle><rect width="72.72727272727273" height="66.66666666666667" x="290.90909090909093" y="466.66666666666674" opacity="0.15"></rect><circle r="3.75" cx="290.90909090909093" cy="466.66666666666674" fill="hsla(0, 0%, 28%, 1.00)" stroke="none"></circle><rect width="72.72727272727273" height="66.66666666666667" x="363.6363636363637" y="466.66666666666674" opacity="0.15"></rect><circle r="3.75" cx="363.6363636363637" cy="466.66666666666674" fill="hsla(0, 0%, 28%, 1.00)" stroke="none"></circle><rect width="72.72727272727273" height="66.66666666666667" x="436.36363636363643" y="466.66666666666674" opacity="0.15"></rect><circle r="3.75" cx="436.36363636363643" cy="466.66666666666674" fill="hsla(0, 0%, 28%, 1.00)" stroke="none"></circle><rect width="72.72727272727273" height="66.66666666666667" x="509.0909090909092" y="466.66666666666674" opacity="0.15"></rect><circle r="3.75" cx="509.0909090909092" cy="466.66666666666674" fill="hsla(0, 0%, 28%, 1.00)" stroke="none"></circle><rect width="72.72727272727273" height="66.66666666666667" x="581.8181818181819" y="466.66666666666674" opacity="0.15"></rect><circle r="3.75" cx="581.8181818181819" cy="466.66666666666674" fill="hsla(0, 0%, 28%, 1.00)" stroke="none"></circle><rect width="72.72727272727273" height="66.66666666666667" x="654.5454545454546" y="466.66666666666674" opacity="0.15"></rect><circle r="3.75" cx="654.5454545454546" cy="466.66666666666674" fill="hsla(0, 0%, 28%, 1.00)" stroke="none"></circle><rect width="72.72727272727273" height="66.66666666666667" x="727.2727272727274" y="466.66666666666674" opacity="0.15"></rect><circle r="3.75" cx="727.2727272727274" cy="466.66666666666674" fill="hsla(0, 0%, 28%, 1.00)" stroke="none"></circle><rect width="72.72727272727273" height="66.66666666666667" x="800.0000000000001" y="466.66666666666674" opacity="0.15"></rect><circle r="3.75" cx="800.0000000000001" cy="466.66666666666674" fill="hsla(0, 0%, 28%, 1.00)" stroke="none"></circle><rect width="72.72727272727273" height="66.66666666666667" x="0" y="533.3333333333334" opacity="0.15"></rect><circle r="3.75" cx="0" cy="533.3333333333334" fill="hsla(0, 0%, 28%, 1.00)" stroke="none"></circle><rect width="72.72727272727273" height="66.66666666666667" x="72.72727272727273" y="533.3333333333334" opacity="0.15"></rect><circle r="3.75" cx="72.72727272727273" cy="533.3333333333334" fill="hsla(0, 0%, 28%, 1.00)" stroke="none"></circle><rect width="72.72727272727273" height="66.66666666666667" x="145.45454545454547" y="533.3333333333334" opacity="0.15"></rect><circle r="3.75" cx="145.45454545454547" cy="533.3333333333334" fill="hsla(0, 0%, 28%, 1.00)" stroke="none"></circle><rect width="72.72727272727273" height="66.66666666666667" x="218.1818181818182" y="533.3333333333334" opacity="0.15"></rect><circle r="3.75" cx="218.1818181818182" cy="533.3333333333334" fill="hsla(0, 0%, 28%, 1.00)" stroke="none"></circle><rect width="72.72727272727273" height="66.66666666666667" x="290.90909090909093" y="533.3333333333334" opacity="0.15"></rect><circle r="3.75" cx="290.90909090909093" cy="533.3333333333334" fill="hsla(0, 0%, 28%, 1.00)" stroke="none"></circle><rect width="72.72727272727273" height="66.66666666666667" x="363.6363636363637" y="533.3333333333334" opacity="0.15"></rect><circle r="3.75" cx="363.6363636363637" cy="533.3333333333334" fill="hsla(0, 0%, 28%, 1.00)" stroke="none"></circle><rect width="72.72727272727273" height="66.66666666666667" x="436.36363636363643" y="533.3333333333334" opacity="0.15"></rect><circle r="3.75" cx="436.36363636363643" cy="533.3333333333334" fill="hsla(0, 0%, 28%, 1.00)" stroke="none"></circle><rect width="72.72727272727273" height="66.66666666666667" x="509.0909090909092" y="533.3333333333334" opacity="0.15"></rect><circle r="3.75" cx="509.0909090909092" cy="533.3333333333334" fill="hsla(0, 0%, 28%, 1.00)" stroke="none"></circle><rect width="72.72727272727273" height="66.66666666666667" x="581.8181818181819" y="533.3333333333334" opacity="0.15"></rect><circle r="3.75" cx="581.8181818181819" cy="533.3333333333334" fill="hsla(0, 0%, 28%, 1.00)" stroke="none"></circle><rect width="72.72727272727273" height="66.66666666666667" x="654.5454545454546" y="533.3333333333334" opacity="0.15"></rect><circle r="3.75" cx="654.5454545454546" cy="533.3333333333334" fill="hsla(0, 0%, 28%, 1.00)" stroke="none"></circle><rect width="72.72727272727273" height="66.66666666666667" x="727.2727272727274" y="533.3333333333334" opacity="0.15"></rect><circle r="3.75" cx="727.2727272727274" cy="533.3333333333334" fill="hsla(0, 0%, 28%, 1.00)" stroke="none"></circle><rect width="72.72727272727273" height="66.66666666666667" x="800.0000000000001" y="533.3333333333334" opacity="0.15"></rect><circle r="3.75" cx="800.0000000000001" cy="533.3333333333334" fill="hsla(0, 0%, 28%, 1.00)" stroke="none"></circle><rect width="72.72727272727273" height="66.66666666666667" x="0" y="600" opacity="0.15"></rect><circle r="3.75" cx="0" cy="600" fill="hsla(0, 0%, 28%, 1.00)" stroke="none"></circle><rect width="72.72727272727273" height="66.66666666666667" x="72.72727272727273" y="600" opacity="0.15"></rect><circle r="3.75" cx="72.72727272727273" cy="600" fill="hsla(0, 0%, 28%, 1.00)" stroke="none"></circle><rect width="72.72727272727273" height="66.66666666666667" x="145.45454545454547" y="600" opacity="0.15"></rect><circle r="3.75" cx="145.45454545454547" cy="600" fill="hsla(0, 0%, 28%, 1.00)" stroke="none"></circle><rect width="72.72727272727273" height="66.66666666666667" x="218.1818181818182" y="600" opacity="0.15"></rect><circle r="3.75" cx="218.1818181818182" cy="600" fill="hsla(0, 0%, 28%, 1.00)" stroke="none"></circle><rect width="72.72727272727273" height="66.66666666666667" x="290.90909090909093" y="600" opacity="0.15"></rect><circle r="3.75" cx="290.90909090909093" cy="600" fill="hsla(0, 0%, 28%, 1.00)" stroke="none"></circle><rect width="72.72727272727273" height="66.66666666666667" x="363.6363636363637" y="600" opacity="0.15"></rect><circle r="3.75" cx="363.6363636363637" cy="600" fill="hsla(0, 0%, 28%, 1.00)" stroke="none"></circle><rect width="72.72727272727273" height="66.66666666666667" x="436.36363636363643" y="600" opacity="0.15"></rect><circle r="3.75" cx="436.36363636363643" cy="600" fill="hsla(0, 0%, 28%, 1.00)" stroke="none"></circle><rect width="72.72727272727273" height="66.66666666666667" x="509.0909090909092" y="600" opacity="0.15"></rect><circle r="3.75" cx="509.0909090909092" cy="600" fill="hsla(0, 0%, 28%, 1.00)" stroke="none"></circle><rect width="72.72727272727273" height="66.66666666666667" x="581.8181818181819" y="600" opacity="0.15"></rect><circle r="3.75" cx="581.8181818181819" cy="600" fill="hsla(0, 0%, 28%, 1.00)" stroke="none"></circle><rect width="72.72727272727273" height="66.66666666666667" x="654.5454545454546" y="600" opacity="0.15"></rect><circle r="3.75" cx="654.5454545454546" cy="600" fill="hsla(0, 0%, 28%, 1.00)" stroke="none"></circle><rect width="72.72727272727273" height="66.66666666666667" x="727.2727272727274" y="600" opacity="0.15"></rect><circle r="3.75" cx="727.2727272727274" cy="600" fill="hsla(0, 0%, 28%, 1.00)" stroke="none"></circle><rect width="72.72727272727273" height="66.66666666666667" x="800.0000000000001" y="600" opacity="0.15"></rect><circle r="3.75" cx="800.0000000000001" cy="600" fill="hsla(0, 0%, 28%, 1.00)" stroke="none"></circle><rect width="72.72727272727273" height="66.66666666666667" x="0" y="666.6666666666666" opacity="0.15"></rect><circle r="3.75" cx="0" cy="666.6666666666666" fill="hsla(0, 0%, 28%, 1.00)" stroke="none"></circle><rect width="72.72727272727273" height="66.66666666666667" x="72.72727272727273" y="666.6666666666666" opacity="0.15"></rect><circle r="3.75" cx="72.72727272727273" cy="666.6666666666666" fill="hsla(0, 0%, 28%, 1.00)" stroke="none"></circle><rect width="72.72727272727273" height="66.66666666666667" x="145.45454545454547" y="666.6666666666666" opacity="0.15"></rect><circle r="3.75" cx="145.45454545454547" cy="666.6666666666666" fill="hsla(0, 0%, 28%, 1.00)" stroke="none"></circle><rect width="72.72727272727273" height="66.66666666666667" x="218.1818181818182" y="666.6666666666666" opacity="0.15"></rect><circle r="3.75" cx="218.1818181818182" cy="666.6666666666666" fill="hsla(0, 0%, 28%, 1.00)" stroke="none"></circle><rect width="72.72727272727273" height="66.66666666666667" x="290.90909090909093" y="666.6666666666666" opacity="0.15"></rect><circle r="3.75" cx="290.90909090909093" cy="666.6666666666666" fill="hsla(0, 0%, 28%, 1.00)" stroke="none"></circle><rect width="72.72727272727273" height="66.66666666666667" x="363.6363636363637" y="666.6666666666666" opacity="0.15"></rect><circle r="3.75" cx="363.6363636363637" cy="666.6666666666666" fill="hsla(0, 0%, 28%, 1.00)" stroke="none"></circle><rect width="72.72727272727273" height="66.66666666666667" x="436.36363636363643" y="666.6666666666666" opacity="0.15"></rect><circle r="3.75" cx="436.36363636363643" cy="666.6666666666666" fill="hsla(0, 0%, 28%, 1.00)" stroke="none"></circle><rect width="72.72727272727273" height="66.66666666666667" x="509.0909090909092" y="666.6666666666666" opacity="0.15"></rect><circle r="3.75" cx="509.0909090909092" cy="666.6666666666666" fill="hsla(0, 0%, 28%, 1.00)" stroke="none"></circle><rect width="72.72727272727273" height="66.66666666666667" x="581.8181818181819" y="666.6666666666666" opacity="0.15"></rect><circle r="3.75" cx="581.8181818181819" cy="666.6666666666666" fill="hsla(0, 0%, 28%, 1.00)" stroke="none"></circle><rect width="72.72727272727273" height="66.66666666666667" x="654.5454545454546" y="666.6666666666666" opacity="0.15"></rect><circle r="3.75" cx="654.5454545454546" cy="666.6666666666666" fill="hsla(0, 0%, 28%, 1.00)" stroke="none"></circle><rect width="72.72727272727273" height="66.66666666666667" x="727.2727272727274" y="666.6666666666666" opacity="0.15"></rect><circle r="3.75" cx="727.2727272727274" cy="666.6666666666666" fill="hsla(0, 0%, 28%, 1.00)" stroke="none"></circle><rect width="72.72727272727273" height="66.66666666666667" x="800.0000000000001" y="666.6666666666666" opacity="0.15"></rect><circle r="3.75" cx="800.0000000000001" cy="666.6666666666666" fill="hsla(0, 0%, 28%, 1.00)" stroke="none"></circle><rect width="72.72727272727273" height="66.66666666666667" x="0" y="733.3333333333333" opacity="0.15"></rect><circle r="3.75" cx="0" cy="733.3333333333333" fill="hsla(0, 0%, 28%, 1.00)" stroke="none"></circle><rect width="72.72727272727273" height="66.66666666666667" x="72.72727272727273" y="733.3333333333333" opacity="0.15"></rect><circle r="3.75" cx="72.72727272727273" cy="733.3333333333333" fill="hsla(0, 0%, 28%, 1.00)" stroke="none"></circle><rect width="72.72727272727273" height="66.66666666666667" x="145.45454545454547" y="733.3333333333333" opacity="0.15"></rect><circle r="3.75" cx="145.45454545454547" cy="733.3333333333333" fill="hsla(0, 0%, 28%, 1.00)" stroke="none"></circle><rect width="72.72727272727273" height="66.66666666666667" x="218.1818181818182" y="733.3333333333333" opacity="0.15"></rect><circle r="3.75" cx="218.1818181818182" cy="733.3333333333333" fill="hsla(0, 0%, 28%, 1.00)" stroke="none"></circle><rect width="72.72727272727273" height="66.66666666666667" x="290.90909090909093" y="733.3333333333333" opacity="0.15"></rect><circle r="3.75" cx="290.90909090909093" cy="733.3333333333333" fill="hsla(0, 0%, 28%, 1.00)" stroke="none"></circle><rect width="72.72727272727273" height="66.66666666666667" x="363.6363636363637" y="733.3333333333333" opacity="0.15"></rect><circle r="3.75" cx="363.6363636363637" cy="733.3333333333333" fill="hsla(0, 0%, 28%, 1.00)" stroke="none"></circle><rect width="72.72727272727273" height="66.66666666666667" x="436.36363636363643" y="733.3333333333333" opacity="0.15"></rect><circle r="3.75" cx="436.36363636363643" cy="733.3333333333333" fill="hsla(0, 0%, 28%, 1.00)" stroke="none"></circle><rect width="72.72727272727273" height="66.66666666666667" x="509.0909090909092" y="733.3333333333333" opacity="0.15"></rect><circle r="3.75" cx="509.0909090909092" cy="733.3333333333333" fill="hsla(0, 0%, 28%, 1.00)" stroke="none"></circle><rect width="72.72727272727273" height="66.66666666666667" x="581.8181818181819" y="733.3333333333333" opacity="0.15"></rect><circle r="3.75" cx="581.8181818181819" cy="733.3333333333333" fill="hsla(0, 0%, 28%, 1.00)" stroke="none"></circle><rect width="72.72727272727273" height="66.66666666666667" x="654.5454545454546" y="733.3333333333333" opacity="0.15"></rect><circle r="3.75" cx="654.5454545454546" cy="733.3333333333333" fill="hsla(0, 0%, 28%, 1.00)" stroke="none"></circle><rect width="72.72727272727273" height="66.66666666666667" x="727.2727272727274" y="733.3333333333333" opacity="0.15"></rect><circle r="3.75" cx="727.2727272727274" cy="733.3333333333333" fill="hsla(0, 0%, 28%, 1.00)" stroke="none"></circle><rect width="72.72727272727273" height="66.66666666666667" x="800.0000000000001" y="733.3333333333333" opacity="0.15"></rect><circle r="3.75" cx="800.0000000000001" cy="733.3333333333333" fill="hsla(0, 0%, 28%, 1.00)" stroke="none"></circle><rect width="72.72727272727273" height="66.66666666666667" x="0" y="799.9999999999999" opacity="0.15"></rect><circle r="3.75" cx="0" cy="799.9999999999999" fill="hsla(0, 0%, 28%, 1.00)" stroke="none"></circle><rect width="72.72727272727273" height="66.66666666666667" x="72.72727272727273" y="799.9999999999999" opacity="0.15"></rect><circle r="3.75" cx="72.72727272727273" cy="799.9999999999999" fill="hsla(0, 0%, 28%, 1.00)" stroke="none"></circle><rect width="72.72727272727273" height="66.66666666666667" x="145.45454545454547" y="799.9999999999999" opacity="0.15"></rect><circle r="3.75" cx="145.45454545454547" cy="799.9999999999999" fill="hsla(0, 0%, 28%, 1.00)" stroke="none"></circle><rect width="72.72727272727273" height="66.66666666666667" x="218.1818181818182" y="799.9999999999999" opacity="0.15"></rect><circle r="3.75" cx="218.1818181818182" cy="799.9999999999999" fill="hsla(0, 0%, 28%, 1.00)" stroke="none"></circle><rect width="72.72727272727273" height="66.66666666666667" x="290.90909090909093" y="799.9999999999999" opacity="0.15"></rect><circle r="3.75" cx="290.90909090909093" cy="799.9999999999999" fill="hsla(0, 0%, 28%, 1.00)" stroke="none"></circle><rect width="72.72727272727273" height="66.66666666666667" x="363.6363636363637" y="799.9999999999999" opacity="0.15"></rect><circle r="3.75" cx="363.6363636363637" cy="799.9999999999999" fill="hsla(0, 0%, 28%, 1.00)" stroke="none"></circle><rect width="72.72727272727273" height="66.66666666666667" x="436.36363636363643" y="799.9999999999999" opacity="0.15"></rect><circle r="3.75" cx="436.36363636363643" cy="799.9999999999999" fill="hsla(0, 0%, 28%, 1.00)" stroke="none"></circle><rect width="72.72727272727273" height="66.66666666666667" x="509.0909090909092" y="799.9999999999999" opacity="0.15"></rect><circle r="3.75" cx="509.0909090909092" cy="799.9999999999999" fill="hsla(0, 0%, 28%, 1.00)" stroke="none"></circle><rect width="72.72727272727273" height="66.66666666666667" x="581.8181818181819" y="799.9999999999999" opacity="0.15"></rect><circle r="3.75" cx="581.8181818181819" cy="799.9999999999999" fill="hsla(0, 0%, 28%, 1.00)" stroke="none"></circle><rect width="72.72727272727273" height="66.66666666666667" x="654.5454545454546" y="799.9999999999999" opacity="0.15"></rect><circle r="3.75" cx="654.5454545454546" cy="799.9999999999999" fill="hsla(0, 0%, 28%, 1.00)" stroke="none"></circle><rect width="72.72727272727273" height="66.66666666666667" x="727.2727272727274" y="799.9999999999999" opacity="0.15"></rect><circle r="3.75" cx="727.2727272727274" cy="799.9999999999999" fill="hsla(0, 0%, 28%, 1.00)" stroke="none"></circle><rect width="72.72727272727273" height="66.66666666666667" x="800.0000000000001" y="799.9999999999999" opacity="0.15"></rect><circle r="3.75" cx="800.0000000000001" cy="799.9999999999999" fill="hsla(0, 0%, 28%, 1.00)" stroke="none"></circle></g></svg>