<svg id="visual" viewBox="0 0 960 540" width="960" height="540" xmlns="http://www.w3.org/2000/svg" xmlns:xlink="http://www.w3.org/1999/xlink" version="1.1"><path d="M0 0L22.8 7.3C45.7 14.7 91.3 29.3 137 30.3C182.7 31.3 228.3 18.7 274 23.2C319.7 27.7 365.3 49.3 411.2 59.3C457 69.3 503 67.7 548.8 60.5C594.7 53.3 640.3 40.7 686 36.2C731.7 31.7 777.3 35.3 823 45.2C868.7 55 914.3 71 937.2 79L960 87L960 0L937.2 0C914.3 0 868.7 0 823 0C777.3 0 731.7 0 686 0C640.3 0 594.7 0 548.8 0C503 0 457 0 411.2 0C365.3 0 319.7 0 274 0C228.3 0 182.7 0 137 0C91.3 0 45.7 0 22.8 0L0 0Z" fill="#000000"></path><path d="M0 98L22.8 116C45.7 134 91.3 170 137 160.2C182.7 150.3 228.3 94.7 274 72.2C319.7 49.7 365.3 60.3 411.2 70.2C457 80 503 89 548.8 87.2C594.7 85.3 640.3 72.7 686 80.8C731.7 89 777.3 118 823 154C868.7 190 914.3 233 937.2 254.5L960 276L960 85L937.2 77C914.3 69 868.7 53 823 43.2C777.3 33.3 731.7 29.7 686 34.2C640.3 38.7 594.7 51.3 548.8 58.5C503 65.7 457 67.3 411.2 57.3C365.3 47.3 319.7 25.7 274 21.2C228.3 16.7 182.7 29.3 137 28.7C91.3 28 45.7 14 22.8 7L0 0Z" fill="#000000"></path><path d="M0 104L22.8 127.3C45.7 150.7 91.3 197.3 137 186.5C182.7 175.7 228.3 107.3 274 78.5C319.7 49.7 365.3 60.3 411.2 72.8C457 85.3 503 99.7 548.8 102.3C594.7 105 640.3 96 686 107.8C731.7 119.7 777.3 152.3 823 191.2C868.7 230 914.3 275 937.2 297.5L960 320L960 274L937.2 252.5C914.3 231 868.7 188 823 152C777.3 116 731.7 87 686 78.8C640.3 70.7 594.7 83.3 548.8 85.2C503 87 457 78 411.2 68.2C365.3 58.3 319.7 47.7 274 70.2C228.3 92.7 182.7 148.3 137 158.2C91.3 168 45.7 132 22.8 114L0 96Z" fill="#000000"></path><path d="M0 185L22.8 198.5C45.7 212 91.3 239 137 216.5C182.7 194 228.3 122 274 102.2C319.7 82.3 365.3 114.7 411.2 132.7C457 150.7 503 154.3 548.8 146.2C594.7 138 640.3 118 686 129.7C731.7 141.3 777.3 184.7 823 221.7C868.7 258.7 914.3 289.3 937.2 304.7L960 320L960 318L937.2 295.5C914.3 273 868.7 228 823 189.2C777.3 150.3 731.7 117.7 686 105.8C640.3 94 594.7 103 548.8 100.3C503 97.7 457 83.3 411.2 70.8C365.3 58.3 319.7 47.7 274 76.5C228.3 105.3 182.7 173.7 137 184.5C91.3 195.3 45.7 148.7 22.8 125.3L0 102Z" fill="#000000"></path><path d="M0 222L22.8 243.7C45.7 265.3 91.3 308.7 137 305.2C182.7 301.7 228.3 251.3 274 226.2C319.7 201 365.3 201 411.2 207.3C457 213.7 503 226.3 548.8 217.3C594.7 208.3 640.3 177.7 686 192C731.7 206.3 777.3 265.7 823 307C868.7 348.3 914.3 371.7 937.2 383.3L960 395L960 318L937.2 302.7C914.3 287.3 868.7 256.7 823 219.7C777.3 182.7 731.7 139.3 686 127.7C640.3 116 594.7 136 548.8 144.2C503 152.3 457 148.7 411.2 130.7C365.3 112.7 319.7 80.3 274 100.2C228.3 120 182.7 192 137 214.5C91.3 237 45.7 210 22.8 196.5L0 183Z" fill="#080808"></path><path d="M0 374L22.8 386.5C45.7 399 91.3 424 137 422.2C182.7 420.3 228.3 391.7 274 384.5C319.7 377.3 365.3 391.7 411.2 410.5C457 429.3 503 452.7 548.8 450C594.7 447.3 640.3 418.7 686 400.7C731.7 382.7 777.3 375.3 823 384.3C868.7 393.3 914.3 418.7 937.2 431.3L960 444L960 393L937.2 381.3C914.3 369.7 868.7 346.3 823 305C777.3 263.7 731.7 204.3 686 190C640.3 175.7 594.7 206.3 548.8 215.3C503 224.3 457 211.7 411.2 205.3C365.3 199 319.7 199 274 224.2C228.3 249.3 182.7 299.7 137 303.2C91.3 306.7 45.7 263.3 22.8 241.7L0 220Z" fill="#151515"></path><path d="M0 460L22.8 463.7C45.7 467.3 91.3 474.7 137 483.7C182.7 492.7 228.3 503.3 274 498.8C319.7 494.3 365.3 474.7 411.2 473.8C457 473 503 491 548.8 500C594.7 509 640.3 509 686 503.5C731.7 498 777.3 487 823 491.5C868.7 496 914.3 516 937.2 526L960 536L960 442L937.2 429.3C914.3 416.7 868.7 391.3 823 382.3C777.3 373.3 731.7 380.7 686 398.7C640.3 416.7 594.7 445.3 548.8 448C503 450.7 457 427.3 411.2 408.5C365.3 389.7 319.7 375.3 274 382.5C228.3 389.7 182.7 418.3 137 420.2C91.3 422 45.7 397 22.8 384.5L0 372Z" fill="#1e1e1e"></path><path d="M0 541L22.8 541C45.7 541 91.3 541 137 541C182.7 541 228.3 541 274 541C319.7 541 365.3 541 411.2 541C457 541 503 541 548.8 541C594.7 541 640.3 541 686 541C731.7 541 777.3 541 823 541C868.7 541 914.3 541 937.2 541L960 541L960 534L937.2 524C914.3 514 868.7 494 823 489.5C777.3 485 731.7 496 686 501.5C640.3 507 594.7 507 548.8 498C503 489 457 471 411.2 471.8C365.3 472.7 319.7 492.3 274 496.8C228.3 501.3 182.7 490.7 137 481.7C91.3 472.7 45.7 465.3 22.8 461.7L0 458Z" fill="#282828"></path></svg>