<svg id="visual" viewBox="0 0 960 540" width="960" height="540" xmlns="http://www.w3.org/2000/svg" xmlns:xlink="http://www.w3.org/1999/xlink" version="1.1"><rect x="0" y="0" width="960" height="540" fill="#ffffff"></rect><path d="M0 116L22.8 138.3C45.7 160.7 91.3 205.3 137 220.7C182.7 236 228.3 222 274 202.3C319.7 182.7 365.3 157.3 411.2 148C457 138.7 503 145.3 548.8 156C594.7 166.7 640.3 181.3 686 172.8C731.7 164.3 777.3 132.7 823 128.5C868.7 124.3 914.3 147.7 937.2 159.3L960 171L960 541L937.2 541C914.3 541 868.7 541 823 541C777.3 541 731.7 541 686 541C640.3 541 594.7 541 548.8 541C503 541 457 541 411.2 541C365.3 541 319.7 541 274 541C228.3 541 182.7 541 137 541C91.3 541 45.7 541 22.8 541L0 541Z" fill="#d5d5d5"></path><path d="M0 302L22.8 291.7C45.7 281.3 91.3 260.7 137 258.8C182.7 257 228.3 274 274 268.5C319.7 263 365.3 235 411.2 229.7C457 224.3 503 241.7 548.8 250C594.7 258.3 640.3 257.7 686 257.7C731.7 257.7 777.3 258.3 823 247.7C868.7 237 914.3 215 937.2 204L960 193L960 541L937.2 541C914.3 541 868.7 541 823 541C777.3 541 731.7 541 686 541C640.3 541 594.7 541 548.8 541C503 541 457 541 411.2 541C365.3 541 319.7 541 274 541C228.3 541 182.7 541 137 541C91.3 541 45.7 541 22.8 541L0 541Z" fill="#cbcbcb"></path><path d="M0 335L22.8 342.2C45.7 349.3 91.3 363.7 137 364.2C182.7 364.7 228.3 351.3 274 337C319.7 322.7 365.3 307.3 411.2 294.2C457 281 503 270 548.8 262.8C594.7 255.7 640.3 252.3 686 258.7C731.7 265 777.3 281 823 300.8C868.7 320.7 914.3 344.3 937.2 356.2L960 368L960 541L937.2 541C914.3 541 868.7 541 823 541C777.3 541 731.7 541 686 541C640.3 541 594.7 541 548.8 541C503 541 457 541 411.2 541C365.3 541 319.7 541 274 541C228.3 541 182.7 541 137 541C91.3 541 45.7 541 22.8 541L0 541Z" fill="#c2c2c2"></path><path d="M0 369L22.8 364.5C45.7 360 91.3 351 137 347.8C182.7 344.7 228.3 347.3 274 358.8C319.7 370.3 365.3 390.7 411.2 397.3C457 404 503 397 548.8 392.2C594.7 387.3 640.3 384.7 686 384.2C731.7 383.7 777.3 385.3 823 384.3C868.7 383.3 914.3 379.7 937.2 377.8L960 376L960 541L937.2 541C914.3 541 868.7 541 823 541C777.3 541 731.7 541 686 541C640.3 541 594.7 541 548.8 541C503 541 457 541 411.2 541C365.3 541 319.7 541 274 541C228.3 541 182.7 541 137 541C91.3 541 45.7 541 22.8 541L0 541Z" fill="#b1b1b1"></path><path d="M0 493L22.8 480.3C45.7 467.7 91.3 442.3 137 428.2C182.7 414 228.3 411 274 416.5C319.7 422 365.3 436 411.2 437.3C457 438.7 503 427.3 548.8 434C594.7 440.7 640.3 465.3 686 470.7C731.7 476 777.3 462 823 452.8C868.7 443.7 914.3 439.3 937.2 437.2L960 435L960 541L937.2 541C914.3 541 868.7 541 823 541C777.3 541 731.7 541 686 541C640.3 541 594.7 541 548.8 541C503 541 457 541 411.2 541C365.3 541 319.7 541 274 541C228.3 541 182.7 541 137 541C91.3 541 45.7 541 22.8 541L0 541Z" fill="#a0a0a0"></path></svg>